<?xml version="1.0" encoding="utf-8"?>
<!-- Generator: Adobe Illustrator 19.2.0, SVG Export Plug-In . SVG Version: 6.00 Build 0)  -->
<svg version="1.1" id="Layer_1" xmlns="http://www.w3.org/2000/svg" xmlns:xlink="http://www.w3.org/1999/xlink" x="0px" y="0px"
	 viewBox="0 0 612 792" style="enable-background:new 0 0 612 792;" xml:space="preserve">
<style type="text/css">
	.st0{opacity:0.5;}
	.st1{fill:#FFFFFF;}
</style>
<g>
	<g class="st0">
		<path class="st1" d="M82,523c0-83.7,0-167.3,0-251c150,0,300,0,450,0c0,83.7,0,167.3,0,251C382,523,232,523,82,523z M262.4,398.7
			c0,24.3,0,48.2,0,72c0.6,0.2,1,0.4,1.3,0.4c1.3,0,2.7-0.1,4-0.2c22.9-2.2,44.9-7.5,65.9-16.9c14.3-6.4,27.2-14.8,37-27.3
			c19.6-25,16.3-58.4-8.1-77.2c-6.5-5-14-9.1-21.7-12.2c-24.4-9.9-50.1-12.9-76.3-13.2c-0.8,0-1.5,0.4-2.1,0.5c0,7.5,0,14.8,0,21.1
			c16.4,2.1,32.5,3.6,48.3,6.3c13.8,2.4,27.1,6.9,38.3,16c9.4,7.7,12.7,17.5,10.3,29.4c-1.9,9.1-6.9,16.1-13.8,22
			c-9.4,8.2-20.5,13.6-32.2,17.6c-9,3.1-18.3,5.4-28.2,8.4c0-16.3,0-31.4,0-46.8C277.4,398.7,270.2,398.7,262.4,398.7z M402.1,347.1
			c2.3,0,4.1,0,5.9,0c9.3,0,18.7,0,28-0.1c5.1,0,9.5,1.7,12.9,5.5c4.5,5.1,5.6,10.9,3.1,17.2c-2.6,6.5-7.5,10.2-14.6,10.3
			c-11.6,0.2-23.2,0.1-35.2,0.1c0,30.8,0,61,0,91.3c7.7,0,15.1,0,22.9,0c0-22.8,0-45.3,0-68.1c2.5-0.2,4.7-0.1,6.8-0.5
			c7-1.4,14.2-2.2,20.8-4.7c17.7-6.6,24-17.7,23.2-39.3c-0.7-19.7-15.7-34.5-35.4-34.7c-11.5-0.1-23,0-34.5,0c-1.3,0-2.5,0.2-4,0.4
			C402.1,332,402.1,339.2,402.1,347.1z M161.8,471.7c0-23.8,0-47,0-69.6c9.8-1.9,19-3.3,28-5.4c8.9-2,15.5-7.4,19.7-15.6
			c3.6-7,3.8-14.4,3.1-22c-2-22-16.3-35.1-38.4-35c-8,0-16,0-24,0c-3.8,0-7.5,0-11.4,0c0,7.9,0,15.2,0,22.7c1.1,0.1,1.9,0.2,2.7,0.2
			c10.7,0,21.3-0.2,32,0c9.1,0.2,16.1,7.6,16.1,16.5c0.1,9.1-7.1,16.3-16.5,16.6c-6,0.1-12,0-18,0c-5.4,0-10.9,0-16.2,0
			c0,31,0,61.2,0,91.5C146.7,471.7,153.8,471.7,161.8,471.7z M169,408.2c0.1,0.2,0.3,0.8,0.6,1.3c15.4,20.1,30.8,40.1,46.3,60.2
			c0.7,0.9,2,2,3.1,2.1c8.9,0.2,17.8,0.1,26.6,0.1c0.1-0.8,0.1-1.1,0.1-1.1c-17-22-33.9-44-51-65.9c-0.6-0.7-2-1.4-2.8-1.2
			C184.2,405,176.7,406.6,169,408.2z"/>
		<path d="M262.4,398.7c7.7,0,15,0,22.7,0c0,15.4,0,30.5,0,46.8c9.9-2.9,19.2-5.3,28.2-8.4c11.7-4,22.8-9.4,32.2-17.6
			c6.8-5.9,11.9-13,13.8-22c2.5-11.9-0.9-21.7-10.3-29.4c-11.2-9.1-24.4-13.7-38.3-16c-15.9-2.7-31.9-4.2-48.3-6.3
			c0-6.3,0-13.6,0-21.1c0.6-0.2,1.4-0.5,2.1-0.5c26.1,0.3,51.9,3.3,76.3,13.2c7.6,3.1,15.2,7.2,21.7,12.2
			c24.4,18.8,27.7,52.2,8.1,77.2c-9.8,12.5-22.8,20.8-37,27.3c-21,9.5-43.1,14.7-65.9,16.9c-1.3,0.1-2.7,0.2-4,0.2
			c-0.3,0-0.6-0.2-1.3-0.4C262.4,446.9,262.4,423,262.4,398.7z"/>
		<path d="M402.1,347.1c0-7.9,0-15.1,0-22.5c1.4-0.1,2.7-0.4,4-0.4c11.5,0,23-0.1,34.5,0c19.7,0.2,34.7,15,35.4,34.7
			c0.8,21.7-5.5,32.8-23.2,39.3c-6.6,2.5-13.9,3.3-20.8,4.7c-2.1,0.4-4.2,0.3-6.8,0.5c0,22.8,0,45.2,0,68.1c-7.8,0-15.2,0-22.9,0
			c0-30.3,0-60.5,0-91.3c11.9,0,23.6,0.2,35.2-0.1c7-0.1,12-3.9,14.6-10.3c2.5-6.3,1.4-12.2-3.1-17.2c-3.4-3.8-7.8-5.5-12.9-5.5
			c-9.3,0-18.7,0-28,0.1C406.2,347.1,404.4,347.1,402.1,347.1z"/>
		<path d="M161.8,471.7c-8,0-15.2,0-22.8,0c0-30.3,0-60.5,0-91.5c5.4,0,10.8,0,16.2,0c6,0,12,0.1,18,0c9.4-0.2,16.5-7.5,16.5-16.6
			c-0.1-8.8-7.1-16.3-16.1-16.5c-10.7-0.3-21.3,0-32,0c-0.8,0-1.6-0.1-2.7-0.2c0-7.5,0-14.7,0-22.7c3.9,0,7.7,0,11.4,0
			c8,0,16,0,24,0c22.1-0.1,36.4,13,38.4,35c0.7,7.6,0.4,15-3.1,22c-4.2,8.2-10.8,13.6-19.7,15.6c-9,2.1-18.2,3.5-28,5.4
			C161.8,424.6,161.8,447.9,161.8,471.7z"/>
		<path d="M169,408.2c7.7-1.6,15.3-3.2,22.9-4.7c0.9-0.2,2.3,0.5,2.8,1.2c17,21.9,34,43.9,51,65.9c0.1,0.1,0,0.3-0.1,1.1
			c-8.8,0-17.7,0.1-26.6-0.1c-1.1,0-2.4-1.1-3.1-2.1c-15.5-20-30.9-40.1-46.3-60.2C169.2,409,169,408.4,169,408.2z"/>
	</g>
	<g>
	</g>
</g>
</svg>
